# xmcd
#
# Track frame offsets:
#	182
#	15367
#	39840
#	68082
#	86965
#	109787
#	133972
#
# Disc length: 2134 seconds
#
# Revision: 3
# Processed by: cddbd v1.5.2PL0 Copyright (c) Steve Scherf et al.
# Submitted via: EZCDAudioConverter 8.3.2.1
#
DISCID=55085407
DTITLE=J.K. - You and I (Australia) [CDM)
DYEAR=1996
DGENRE=Eurodance
TTITLE0=You And I (Radio Mix)
TTITLE1=You And I (DK Beat Mix)
TTITLE2=You And I (Club Remix)
TTITLE3=You And I (RK Beat Mix)
TTITLE4=You And I (Full Mix)
TTITLE5=You And I (Guitar Mix)
TTITLE6=You And I (U.G.K. Beat Mix)
EXTD=
EXTT0=
EXTT1=
EXTT2=
EXTT3=
EXTT4=
EXTT5=
EXTT6=
PLAYORDER=
